<?xml version="1.0" standalone="no"?>
<!DOCTYPE svg PUBLIC "-//W3C//DTD SVG 1.1//EN" "http://www.w3.org/Graphics/SVG/1.1/DTD/svg11.dtd" >
<svg xmlns="http://www.w3.org/2000/svg">
<metadata>
This is a custom SVG webfont generated by Font Squirrel.
Copyright   : Guild of Professional Actors  httpfontstom7com  Copyright c 1999 Tom Murphy 7  Use freely for any purpose but dont resell the font itself ImightbeTMaolcom  339 Still Hill Rd  Hamden CT 06518  USA  Enjoy this  Divide By Zero  font I
Designer    : Tom Murphy 7
Foundry     :  Divide By Zero 
Foundry URL : httpfontstom7com
</metadata>
<defs>
<font id="GuildofProfessionalActorsRg" horiz-adv-x="731" >
<font-face units-per-em="2048" ascent="1638" descent="-410" />
<missing-glyph horiz-adv-x="1210" />
<glyph unicode=" "  horiz-adv-x="1210" />
<glyph unicode="&#x09;" horiz-adv-x="1210" />
<glyph unicode="&#xa0;" horiz-adv-x="1210" />
<glyph unicode="!" horiz-adv-x="499" d="M184 162q0 31 21.5 53.5t54.5 22.5q31 0 52.5 -22.5t21.5 -53.5t-21.5 -53.5t-52.5 -22.5q-33 0 -54.5 22.5t-21.5 53.5zM219 444v1082h78v-1082h-78z" />
<glyph unicode="&#x22;" horiz-adv-x="753" d="M158 1307q49 78 49 157h78q0 -102 -39 -157h-88zM441 1307q49 78 49 157h78q0 -102 -39 -157h-88z" />
<glyph unicode="#" d="M113 625l178 176l-178 176l55 55l178 -176l180 176l56 -55l-181 -176l181 -176l-56 -56l-180 179l-178 -179z" />
<glyph unicode="$" d="M113 625l178 176l-178 176l55 55l178 -176l180 176l56 -55l-181 -176l181 -176l-56 -56l-180 179l-178 -179z" />
<glyph unicode="%" d="M113 625l178 176l-178 176l55 55l178 -176l180 176l56 -55l-181 -176l181 -176l-56 -56l-180 179l-178 -179z" />
<glyph unicode="&#x26;" d="M113 625l178 176l-178 176l55 55l178 -176l180 176l56 -55l-181 -176l181 -176l-56 -56l-180 179l-178 -179z" />
<glyph unicode="'" horiz-adv-x="423" d="M158 1307q49 78 49 157h78q0 -102 -39 -157h-88z" />
<glyph unicode="(" horiz-adv-x="583" d="M154 840q0 197 53 391q63 229 176 344l57 -53q-104 -109 -161 -322q-47 -178 -48 -360q0 -184 45 -363q57 -221 162 -317l-53 -58q-117 102 -180 344q-51 193 -51 394z" />
<glyph unicode=")" horiz-adv-x="583" d="M154 1522l57 53q113 -115 176 -344q53 -195 53 -391q0 -201 -51 -394q-63 -242 -180 -344l-53 58q104 96 161 317q45 178 45 363q0 182 -47 360q-57 213 -161 322z" />
<glyph unicode="*" horiz-adv-x="530" d="M137 1393l41 65l62 -37l-2 74l77 4l7 -63l63 26l33 -67l-82 -45l76 -80l-58 -53l-69 73l-62 -71l-59 49l59 71z" />
<glyph unicode="+" d="M113 625l178 176l-178 176l55 55l178 -176l180 176l56 -55l-181 -176l181 -176l-56 -56l-180 179l-178 -179z" />
<glyph unicode="," horiz-adv-x="385" d="M158 55q49 76 49 158h78q0 -102 -39 -158h-88z" />
<glyph unicode="-" horiz-adv-x="991" d="M145 389v78h695v-78h-695z" />
<glyph unicode="." horiz-adv-x="430" d="M154 162q0 31 21.5 52.5t51.5 21.5q33 0 54.5 -21.5t21.5 -52.5q0 -33 -21.5 -54.5t-54.5 -21.5q-31 0 -52 21.5t-21 54.5z" />
<glyph unicode="/" horiz-adv-x="1001" d="M186 164l574 1352l71 -29l-573 -1354z" />
<glyph unicode="0" d="M113 625l178 176l-178 176l55 55l178 -176l180 176l56 -55l-181 -176l181 -176l-56 -56l-180 179l-178 -179z" />
<glyph unicode="1" d="M113 625l178 176l-178 176l55 55l178 -176l180 176l56 -55l-181 -176l181 -176l-56 -56l-180 179l-178 -179z" />
<glyph unicode="2" d="M113 625l178 176l-178 176l55 55l178 -176l180 176l56 -55l-181 -176l181 -176l-56 -56l-180 179l-178 -179z" />
<glyph unicode="3" d="M113 625l178 176l-178 176l55 55l178 -176l180 176l56 -55l-181 -176l181 -176l-56 -56l-180 179l-178 -179z" />
<glyph unicode="4" d="M113 625l178 176l-178 176l55 55l178 -176l180 176l56 -55l-181 -176l181 -176l-56 -56l-180 179l-178 -179z" />
<glyph unicode="5" d="M113 625l178 176l-178 176l55 55l178 -176l180 176l56 -55l-181 -176l181 -176l-56 -56l-180 179l-178 -179z" />
<glyph unicode="6" d="M113 625l178 176l-178 176l55 55l178 -176l180 176l56 -55l-181 -176l181 -176l-56 -56l-180 179l-178 -179z" />
<glyph unicode="7" d="M113 625l178 176l-178 176l55 55l178 -176l180 176l56 -55l-181 -176l181 -176l-56 -56l-180 179l-178 -179z" />
<glyph unicode="8" d="M113 625l178 176l-178 176l55 55l178 -176l180 176l56 -55l-181 -176l181 -176l-56 -56l-180 179l-178 -179z" />
<glyph unicode="9" d="M113 625l178 176l-178 176l55 55l178 -176l180 176l56 -55l-181 -176l181 -176l-56 -56l-180 179l-178 -179z" />
<glyph unicode=":" horiz-adv-x="464" d="M154 162q0 31 21.5 52.5t51.5 21.5q33 0 54.5 -21.5t21.5 -52.5q0 -33 -21.5 -54.5t-54.5 -21.5q-31 0 -52 21.5t-21 54.5zM154 793q0 31 21.5 52.5t51.5 21.5q33 0 54.5 -21.5t21.5 -52.5q0 -33 -21.5 -54.5t-54.5 -21.5q-31 0 -52 21.5t-21 54.5z" />
<glyph unicode=";" horiz-adv-x="385" d="M158 55q49 76 49 158h78q0 -102 -39 -158h-88zM154 793q0 31 21.5 52.5t51.5 21.5q33 0 54.5 -21.5t21.5 -52.5q0 -33 -21.5 -54.5t-54.5 -21.5q-31 0 -52 21.5t-21 54.5z" />
<glyph unicode="&#x3c;" horiz-adv-x="583" d="M154 840q0 197 53 391q63 229 176 344l57 -53q-104 -109 -161 -322q-47 -178 -48 -360q0 -184 45 -363q57 -221 162 -317l-53 -58q-117 102 -180 344q-51 193 -51 394z" />
<glyph unicode="=" horiz-adv-x="991" d="M145 389v78h695v-78h-695zM145 686v78h695v-78h-695z" />
<glyph unicode="&#x3e;" horiz-adv-x="583" d="M154 1522l57 53q113 -115 176 -344q53 -195 53 -391q0 -201 -51 -394q-63 -242 -180 -344l-53 58q104 96 161 317q45 178 45 363q0 182 -47 360q-57 213 -161 322z" />
<glyph unicode="?" horiz-adv-x="1079" d="M174 1456v78q231 27 352 25q209 0 320 -50q156 -68 155 -237q0 -229 -149 -365q-129 -115 -295 -114h-94v-377h-78v454q10 -6 49 -6q27 0 74 3t49 3q129 0 240 101q127 119 127 301q0 115 -107 160q-59 25 -227 45q2 0 -137 -4q-103 -3 -279 -17zM354 150q0 33 22.5 54 t53.5 21t53.5 -21.5t22.5 -53.5q0 -31 -22.5 -53.5t-53.5 -22.5t-53.5 22.5t-22.5 53.5z" />
<glyph unicode="@" d="M113 625l178 176l-178 176l55 55l178 -176l180 176l56 -55l-181 -176l181 -176l-56 -56l-180 179l-178 -179z" />
<glyph unicode="A" horiz-adv-x="1048" d="M88 324q0 238 217 381q188 123 440 124l166 2v-727q-61 -27 -207.5 -55.5t-216.5 -28.5q-399 1 -399 304zM166 324q0 -117 113 -177q88 -47 217 -47q223 0 338 62q0 -3 -1 -3q-2 0 -2 228q0 61 3.5 181t3.5 177q-18 6 -54 7q-236 0 -407 -95q-211 -116 -211 -333z" />
<glyph unicode="B" horiz-adv-x="1079" d="M158 35v78l407 -2q125 0 221 45q125 59 125 168q0 203 -196 323q-166 102 -383 103h-174q3 274 3 473.5t-3 324.5h78q2 -143 2 -323.5t-2 -397.5q25 2 96 2q250 0 438 -124q219 -143 219 -381q0 -289 -477 -289h-354z" />
<glyph unicode="C" horiz-adv-x="991" d="M131 324q0 299 231 405q152 72 492 74l2 -78q-109 0 -172 -2q-475 -12 -475 -399q0 -225 393 -226q182 0 252 29v-64q-141 -41 -192 -40q-531 0 -531 301z" />
<glyph unicode="D" horiz-adv-x="991" d="M131 324q0 240 162 364q145 113 391 113q39 0 94 2v729h76v-809h-170q-225 0 -348 -98q-127 -104 -127 -301q0 -119 113 -177q90 -47 222 -47h11q43 0 143 2q53 4 156 25v-70q-61 -31 -260 -30q-166 0 -289 55q-174 76 -174 242z" />
<glyph unicode="E" horiz-adv-x="991" d="M63 344q0 217 173 365q164 141 385 141q303 0 303 -301q0 -43 -17 -160h-762l-4 -45v-15q0 -82 41 -139q45 -61 92 -124l-65 -39q-51 72 -103 145q-43 66 -43 172zM162 467h678q6 45 6 82q0 223 -201 223q-166 0 -293 -74q-141 -81 -190 -231z" />
<glyph unicode="F" horiz-adv-x="905" d="M100 739v78h154v377q0 133 61 203q51 63 181 104q174 57 313 58v-76q-94 0 -285.5 -54.5t-191.5 -234.5v-1149h-78v694h-154z" />
<glyph unicode="G" horiz-adv-x="991" d="M131 526q0 164 174 242q121 53 289 53q197 0 260 -28q-1 -11 -1 -29.5t1 -42.5q-41 23 -119 23.5t-153 3.5h-29h-21q-125 0 -210 -46q-113 -59 -113 -176q0 -199 125 -300t350 -101h170v-526q0 -131 -59 -201q-51 -63 -181 -107q-94 -33 -96 -32q-29 -6 -102 -7v74 q61 0 88 8l86 29q98 31 142 81t44 148v455h-92q-248 0 -393 113q-160 126 -160 366z" />
<glyph unicode="H" horiz-adv-x="976" d="M158 752v796h78v-721q29 2 96 2q240 0 391 -131q160 -137 160 -374v-312h-78v312q0 186 -130 307t-343 121h-174z" />
<glyph unicode="I" horiz-adv-x="387" d="M158 178v647h78v-647q0 -82 49 -160h-86q-41 56 -41 160z" />
<glyph unicode="J" horiz-adv-x="823" d="M223 -229q61 0 88 8q43 14 84 28q188 55 189 234v793h78v-793q0 -131 -55.5 -197.5t-184.5 -109.5q-96 -31 -98 -31q-29 -8 -101 -8v76z" />
<glyph unicode="K" horiz-adv-x="899" d="M217 758v790h78v-714l412 411l55 -55l-445 -442l426 -631l-65 -43z" />
<glyph unicode="L" horiz-adv-x="385" d="M158 213v1335h78v-1335q0 -82 49 -158h-86q-41 56 -41 158z" />
<glyph unicode="M" horiz-adv-x="1570" d="M168 45v440q0 141 99.5 234.5t242.5 93.5q80 0 172 -48t131 -114q39 66 131 114t172 48q143 0 242.5 -93t99.5 -235v-440h-78v440q0 100 -45 151.5t-143 84.5q-43 12 -80 12q-31 0 -74 -12q-98 -33 -139 -82q-47 -53 -47 -154v-440h-78v465q0 96 -86 162q-78 61 -178 61 q-35 0 -76 -12q-100 -33 -141 -82q-47 -53 -47 -154v-440h-78z" />
<glyph unicode="N" horiz-adv-x="974" d="M168 45v440q0 233 240 308q53 16 102 16t102 -16q240 -76 240 -308v-440h-78v440q0 178 -188 236q-39 12 -74 12q-37 0 -78 -12q-188 -57 -188 -236v-440h-78z" />
<glyph unicode="O" horiz-adv-x="960" d="M90 430q0 164 117 279.5t280 115.5q164 0 280 -115.5t116 -279.5q0 -166 -116 -281.5t-280 -115.5t-280.5 115.5t-116.5 281.5zM168 430q0 -133 93 -226t226 -93q131 0 224.5 93t93.5 226q0 131 -93.5 224.5t-224.5 93.5q-133 0 -226 -93.5t-93 -224.5z" />
<glyph unicode="P" horiz-adv-x="1079" d="M162 119q20 -12 172 -13q233 0 401 115q178 121 178 314q0 115 -112 167q-74 37 -232 56q-4 1 -19 0q-30 0 -106 -2q-102 -2 -282 -13v78q200 11 316 11q19 0 36 -1q477 -2 477 -296q0 -236 -213 -379q-190 -127 -444 -127q-66 0 -96 2v-721h-76v809z" />
<glyph unicode="Q" horiz-adv-x="991" d="M131 526q0 164 174 242q121 53 289 53q197 0 260 -28q-1 -11 -1 -29.5t1 -42.5q-41 23 -119 23.5t-153 3.5h-29h-21q-125 0 -210 -46q-113 -59 -113 -176q0 -199 125 -300t350 -101h170v-807h-78v729h-92q-248 0 -393 113q-160 126 -160 366z" />
<glyph unicode="R" horiz-adv-x="860" d="M254 45v440q0 131 59 201q53 63 183 107q94 31 96 32q29 6 102 6v-73q-61 0 -88 -8l-86 -29q-188 -57 -188 -236v-440h-78z" />
<glyph unicode="S" horiz-adv-x="878" d="M139 27v77h246q43 0 95 41t52 99q0 80 -81.5 172t-81.5 188q0 98 86 166q72 55 147 55h182l-2 -77h-180q-49 0 -100 -39q-55 -45 -56 -105q0 -84 82 -179t82 -181q0 -92 -71.5 -154.5t-153.5 -62.5h-246z" />
<glyph unicode="T" horiz-adv-x="536" d="M100 739v78h154v731h78v-1503h-78v694h-154z" />
<glyph unicode="U" horiz-adv-x="974" d="M168 354v473h78v-473q0 -178 188 -235q45 -12 76 -13q31 0 76 13q188 57 188 235v473h78v-473q0 -231 -240 -307q-57 -18 -102 -18t-102 18q-240 74 -240 307z" />
<glyph unicode="V" horiz-adv-x="1048" d="M41 827l68 37l401 -700l369 700l69 -37l-401 -761h-68z" />
<glyph unicode="W" horiz-adv-x="2000" d="M172 823l68 39l403 -700l358 690h72l385 -688l369 698l69 -35l-401 -761l-70 -3l-389 680l-358 -680l-68 -2z" />
<glyph unicode="X" horiz-adv-x="1107" d="M147 111l357 354l-318 317l56 56l317 -318l322 322l57 -60l-324 -317l344 -352l-55 -56l-344 353l-356 -355z" />
<glyph unicode="Y" horiz-adv-x="919" d="M190 809l60 51l268 -319l172 323l70 -37l-416 -784h-94l229 424z" />
<glyph unicode="Z" horiz-adv-x="937" d="M117 63v78l639 607h-639v75h741v-75l-629 -607h629v-78h-741z" />
<glyph unicode="[" horiz-adv-x="583" d="M154 840q0 197 53 391q63 229 176 344l57 -53q-104 -109 -161 -322q-47 -178 -48 -360q0 -184 45 -363q57 -221 162 -317l-53 -58q-117 102 -180 344q-51 193 -51 394z" />
<glyph unicode="\" horiz-adv-x="1001" d="M186 1487l72 29l573 -1352l-71 -31z" />
<glyph unicode="]" horiz-adv-x="583" d="M154 1522l57 53q113 -115 176 -344q53 -195 53 -391q0 -201 -51 -394q-63 -242 -180 -344l-53 58q104 96 161 317q45 178 45 363q0 182 -47 360q-57 213 -161 322z" />
<glyph unicode="^" d="M113 625l178 176l-178 176l55 55l178 -176l180 176l56 -55l-181 -176l181 -176l-56 -56l-180 179l-178 -179z" />
<glyph unicode="_" d="M113 625l178 176l-178 176l55 55l178 -176l180 176l56 -55l-181 -176l181 -176l-56 -56l-180 179l-178 -179z" />
<glyph unicode="`" horiz-adv-x="423" d="M158 1464h78q0 -80 49 -157h-86q-41 55 -41 157z" />
<glyph unicode="a" horiz-adv-x="1048" d="M88 324q0 238 217 381q188 123 440 124l166 2v-727q-61 -27 -207.5 -55.5t-216.5 -28.5q-399 1 -399 304zM166 324q0 -117 113 -177q88 -47 217 -47q223 0 338 62q0 -3 -1 -3q-2 0 -2 228q0 61 3.5 181t3.5 177q-18 6 -54 7q-236 0 -407 -95q-211 -116 -211 -333z" />
<glyph unicode="b" horiz-adv-x="1079" d="M158 35v78l407 -2q125 0 221 45q125 59 125 168q0 203 -196 323q-166 102 -383 103h-174q3 274 3 473.5t-3 324.5h78q2 -143 2 -323.5t-2 -397.5q25 2 96 2q250 0 438 -124q219 -143 219 -381q0 -289 -477 -289h-354z" />
<glyph unicode="c" horiz-adv-x="991" d="M131 324q0 299 231 405q152 72 492 74l2 -78q-109 0 -172 -2q-475 -12 -475 -399q0 -225 393 -226q182 0 252 29v-64q-141 -41 -192 -40q-531 0 -531 301z" />
<glyph unicode="d" horiz-adv-x="991" d="M131 324q0 240 162 364q145 113 391 113q39 0 94 2v729h76v-809h-170q-225 0 -348 -98q-127 -104 -127 -301q0 -119 113 -177q90 -47 222 -47h11q43 0 143 2q53 4 156 25v-70q-61 -31 -260 -30q-166 0 -289 55q-174 76 -174 242z" />
<glyph unicode="e" horiz-adv-x="991" d="M63 344q0 217 173 365q164 141 385 141q303 0 303 -301q0 -43 -17 -160h-762l-4 -45v-15q0 -82 41 -139q45 -61 92 -124l-65 -39q-51 72 -103 145q-43 66 -43 172zM162 467h678q6 45 6 82q0 223 -201 223q-166 0 -293 -74q-141 -81 -190 -231z" />
<glyph unicode="f" horiz-adv-x="905" d="M100 739v78h154v377q0 133 61 203q51 63 181 104q174 57 313 58v-76q-94 0 -285.5 -54.5t-191.5 -234.5v-1149h-78v694h-154z" />
<glyph unicode="g" horiz-adv-x="991" d="M131 526q0 164 174 242q121 53 289 53q197 0 260 -28q-1 -11 -1 -29.5t1 -42.5q-41 23 -119 23.5t-153 3.5h-29h-21q-125 0 -210 -46q-113 -59 -113 -176q0 -199 125 -300t350 -101h170v-526q0 -131 -59 -201q-51 -63 -181 -107q-94 -33 -96 -32q-29 -6 -102 -7v74 q61 0 88 8l86 29q98 31 142 81t44 148v455h-92q-248 0 -393 113q-160 126 -160 366z" />
<glyph unicode="h" horiz-adv-x="976" d="M158 752v796h78v-721q29 2 96 2q240 0 391 -131q160 -137 160 -374v-312h-78v312q0 186 -130 307t-343 121h-174z" />
<glyph unicode="i" horiz-adv-x="387" d="M158 178v647h78v-647q0 -82 49 -160h-86q-41 56 -41 160z" />
<glyph unicode="j" horiz-adv-x="823" d="M223 -229q61 0 88 8q43 14 84 28q188 55 189 234v793h78v-793q0 -131 -55.5 -197.5t-184.5 -109.5q-96 -31 -98 -31q-29 -8 -101 -8v76z" />
<glyph unicode="k" horiz-adv-x="899" d="M217 758v790h78v-714l412 411l55 -55l-445 -442l426 -631l-65 -43z" />
<glyph unicode="l" horiz-adv-x="385" d="M158 213v1335h78v-1335q0 -82 49 -158h-86q-41 56 -41 158z" />
<glyph unicode="m" horiz-adv-x="1570" d="M168 45v440q0 141 99.5 234.5t242.5 93.5q80 0 172 -48t131 -114q39 66 131 114t172 48q143 0 242.5 -93t99.5 -235v-440h-78v440q0 100 -45 151.5t-143 84.5q-43 12 -80 12q-31 0 -74 -12q-98 -33 -139 -82q-47 -53 -47 -154v-440h-78v465q0 96 -86 162q-78 61 -178 61 q-35 0 -76 -12q-100 -33 -141 -82q-47 -53 -47 -154v-440h-78z" />
<glyph unicode="n" horiz-adv-x="974" d="M168 45v440q0 233 240 308q53 16 102 16t102 -16q240 -76 240 -308v-440h-78v440q0 178 -188 236q-39 12 -74 12q-37 0 -78 -12q-188 -57 -188 -236v-440h-78z" />
<glyph unicode="o" horiz-adv-x="960" d="M90 430q0 164 117 279.5t280 115.5q164 0 280 -115.5t116 -279.5q0 -166 -116 -281.5t-280 -115.5t-280.5 115.5t-116.5 281.5zM168 430q0 -133 93 -226t226 -93q131 0 224.5 93t93.5 226q0 131 -93.5 224.5t-224.5 93.5q-133 0 -226 -93.5t-93 -224.5z" />
<glyph unicode="p" horiz-adv-x="1079" d="M162 119q20 -12 172 -13q233 0 401 115q178 121 178 314q0 115 -112 167q-74 37 -232 56q-4 1 -19 0q-30 0 -106 -2q-102 -2 -282 -13v78q200 11 316 11q19 0 36 -1q477 -2 477 -296q0 -236 -213 -379q-190 -127 -444 -127q-66 0 -96 2v-721h-76v809z" />
<glyph unicode="q" horiz-adv-x="991" d="M131 526q0 164 174 242q121 53 289 53q197 0 260 -28q-1 -11 -1 -29.5t1 -42.5q-41 23 -119 23.5t-153 3.5h-29h-21q-125 0 -210 -46q-113 -59 -113 -176q0 -199 125 -300t350 -101h170v-807h-78v729h-92q-248 0 -393 113q-160 126 -160 366z" />
<glyph unicode="r" horiz-adv-x="860" d="M254 45v440q0 131 59 201q53 63 183 107q94 31 96 32q29 6 102 6v-73q-61 0 -88 -8l-86 -29q-188 -57 -188 -236v-440h-78z" />
<glyph unicode="s" horiz-adv-x="878" d="M139 27v77h246q43 0 95 41t52 99q0 80 -81.5 172t-81.5 188q0 98 86 166q72 55 147 55h182l-2 -77h-180q-49 0 -100 -39q-55 -45 -56 -105q0 -84 82 -179t82 -181q0 -92 -71.5 -154.5t-153.5 -62.5h-246z" />
<glyph unicode="t" horiz-adv-x="536" d="M100 739v78h154v731h78v-1503h-78v694h-154z" />
<glyph unicode="u" horiz-adv-x="974" d="M168 354v473h78v-473q0 -178 188 -235q45 -12 76 -13q31 0 76 13q188 57 188 235v473h78v-473q0 -231 -240 -307q-57 -18 -102 -18t-102 18q-240 74 -240 307z" />
<glyph unicode="v" horiz-adv-x="1048" d="M41 827l68 37l401 -700l369 700l69 -37l-401 -761h-68z" />
<glyph unicode="w" horiz-adv-x="2000" d="M172 823l68 39l403 -700l358 690h72l385 -688l369 698l69 -35l-401 -761l-70 -3l-389 680l-358 -680l-68 -2z" />
<glyph unicode="x" horiz-adv-x="1107" d="M147 111l357 354l-318 317l56 56l317 -318l322 322l57 -60l-324 -317l344 -352l-55 -56l-344 353l-356 -355z" />
<glyph unicode="y" horiz-adv-x="919" d="M190 809l60 51l268 -319l172 323l70 -37l-416 -784h-94l229 424z" />
<glyph unicode="z" horiz-adv-x="937" d="M117 63v78l639 607h-639v75h741v-75l-629 -607h629v-78h-741z" />
<glyph unicode="{" horiz-adv-x="583" d="M154 840q0 197 53 391q63 229 176 344l57 -53q-104 -109 -161 -322q-47 -178 -48 -360q0 -184 45 -363q57 -221 162 -317l-53 -58q-117 102 -180 344q-51 193 -51 394z" />
<glyph unicode="|" horiz-adv-x="499" d="M219 90v1436h78v-1436h-78z" />
<glyph unicode="}" horiz-adv-x="583" d="M154 1522l57 53q113 -115 176 -344q53 -195 53 -391q0 -201 -51 -394q-63 -242 -180 -344l-53 58q104 96 161 317q45 178 45 363q0 182 -47 360q-57 213 -161 322z" />
<glyph unicode="~" d="M113 625l178 176l-178 176l55 55l178 -176l180 176l56 -55l-181 -176l181 -176l-56 -56l-180 179l-178 -179z" />
<glyph unicode="&#xa1;" horiz-adv-x="499" d="M184 1450q0 31 21.5 53.5t54.5 22.5q31 0 52.5 -22.5t21.5 -53.5q0 -33 -21.5 -54.5t-52.5 -21.5q-33 0 -54.5 21.5t-21.5 54.5zM221 86v1081h78v-1081h-78z" />
<glyph unicode="&#xaa;" horiz-adv-x="1048" d="M88 324q0 238 217 381q188 123 440 124l166 2v-727q-61 -27 -207.5 -55.5t-216.5 -28.5q-399 1 -399 304zM166 324q0 -117 113 -177q88 -47 217 -47q223 0 338 62q0 -3 -1 -3q-2 0 -2 228q0 61 3.5 181t3.5 177q-18 6 -54 7q-236 0 -407 -95q-211 -116 -211 -333z" />
<glyph unicode="&#xad;" horiz-adv-x="991" d="M145 389v78h695v-78h-695z" />
<glyph unicode="&#xb2;" d="M113 625l178 176l-178 176l55 55l178 -176l180 176l56 -55l-181 -176l181 -176l-56 -56l-180 179l-178 -179z" />
<glyph unicode="&#xb3;" d="M113 625l178 176l-178 176l55 55l178 -176l180 176l56 -55l-181 -176l181 -176l-56 -56l-180 179l-178 -179z" />
<glyph unicode="&#xb9;" d="M113 625l178 176l-178 176l55 55l178 -176l180 176l56 -55l-181 -176l181 -176l-56 -56l-180 179l-178 -179z" />
<glyph unicode="&#xba;" horiz-adv-x="960" d="M90 430q0 164 117 279.5t280 115.5q164 0 280 -115.5t116 -279.5q0 -166 -116 -281.5t-280 -115.5t-280.5 115.5t-116.5 281.5zM168 430q0 -133 93 -226t226 -93q131 0 224.5 93t93.5 226q0 131 -93.5 224.5t-224.5 93.5q-133 0 -226 -93.5t-93 -224.5z" />
<glyph unicode="&#xbf;" horiz-adv-x="1079" d="M174 360q0 231 152 367q129 115 292 115h97q-2 113 0 375h78v-453q-10 6 -50 6q-29 0 -74.5 -3t-50.5 -3q-129 0 -237 -100q-129 -119 -129 -304q0 -113 108 -157q57 -25 228 -45q-2 0 137 2q102 2 276 18v-78q-229 -27 -350 -26q-211 2 -321 51q-156 67 -156 235z M672 1483q0 33 21.5 54.5t54.5 21.5q31 0 53 -21.5t22 -54.5q0 -31 -22.5 -52.5t-52.5 -21.5q-33 0 -54.5 21.5t-21.5 52.5z" />
<glyph unicode="&#xc0;" horiz-adv-x="1048" d="M828 1112h78q0 -80 49 -157h-86q-41 55 -41 157zM88 324q0 238 217 381q188 123 440 124l166 2v-727q-61 -27 -207.5 -55.5t-216.5 -28.5q-399 1 -399 304zM166 324q0 -117 113 -177q88 -47 217 -47q223 0 338 62q0 -3 -1 -3q-2 0 -2 228q0 61 3.5 181t3.5 177 q-18 6 -54 7q-236 0 -407 -95q-211 -116 -211 -333z" />
<glyph unicode="&#xc2;" horiz-adv-x="1048" d="M678 1010l178 176l-178 176l55 55l178 -176l180 176l56 -55l-181 -176l181 -176l-56 -56l-180 179l-178 -179zM88 324q0 238 217 381q188 123 440 124l166 2v-727q-61 -27 -207.5 -55.5t-216.5 -28.5q-399 1 -399 304zM166 324q0 -117 113 -177q88 -47 217 -47 q223 0 338 62q0 -3 -1 -3q-2 0 -2 228q0 61 3.5 181t3.5 177q-18 6 -54 7q-236 0 -407 -95q-211 -116 -211 -333z" />
<glyph unicode="&#xc3;" horiz-adv-x="1048" d="M678 1010l178 176l-178 176l55 55l178 -176l180 176l56 -55l-181 -176l181 -176l-56 -56l-180 179l-178 -179zM88 324q0 238 217 381q188 123 440 124l166 2v-727q-61 -27 -207.5 -55.5t-216.5 -28.5q-399 1 -399 304zM166 324q0 -117 113 -177q88 -47 217 -47 q223 0 338 62q0 -3 -1 -3q-2 0 -2 228q0 61 3.5 181t3.5 177q-18 6 -54 7q-236 0 -407 -95q-211 -116 -211 -333z" />
<glyph unicode="&#xc8;" horiz-adv-x="2048" />
<glyph unicode="&#xca;" horiz-adv-x="991" d="M387 1028l178 176l-178 176l55 55l178 -176l180 176l56 -55l-181 -176l181 -176l-56 -56l-180 179l-178 -179zM63 344q0 217 173 365q164 141 385 141q303 0 303 -301q0 -43 -17 -160h-762l-4 -45v-15q0 -82 41 -139q45 -61 92 -124l-65 -39q-51 72 -103 145 q-43 66 -43 172zM162 467h678q6 45 6 82q0 223 -201 223q-166 0 -293 -74q-141 -81 -190 -231z" />
<glyph unicode="&#xcc;" horiz-adv-x="387" d="M113 1106h78q0 -80 49 -157h-86q-41 55 -41 157zM158 178v647h78v-647q0 -82 49 -160h-86q-41 56 -41 160z" />
<glyph unicode="&#xce;" horiz-adv-x="387" d="M-39 1004l178 176l-178 176l55 55l178 -176l180 176l56 -55l-181 -176l181 -176l-56 -56l-180 179l-178 -179zM158 178v647h78v-647q0 -82 49 -160h-86q-41 56 -41 160z" />
<glyph unicode="&#xd1;" horiz-adv-x="974" d="M277 1004l178 176l-178 176l55 55l178 -176l180 176l56 -55l-181 -176l181 -176l-56 -56l-180 179l-178 -179zM168 45v440q0 233 240 308q53 16 102 16t102 -16q240 -76 240 -308v-440h-78v440q0 178 -188 236q-39 12 -74 12q-37 0 -78 -12q-188 -57 -188 -236v-440h-78z " />
<glyph unicode="&#xd2;" horiz-adv-x="960" d="M404 1106h78q0 -80 49 -157h-86q-41 55 -41 157zM90 430q0 164 117 279.5t280 115.5q164 0 280 -115.5t116 -279.5q0 -166 -116 -281.5t-280 -115.5t-280.5 115.5t-116.5 281.5zM168 430q0 -133 93 -226t226 -93q131 0 224.5 93t93.5 226q0 131 -93.5 224.5t-224.5 93.5 q-133 0 -226 -93.5t-93 -224.5z" />
<glyph unicode="&#xd4;" horiz-adv-x="960" d="M252 1004l178 176l-178 176l55 55l178 -176l180 176l56 -55l-181 -176l181 -176l-56 -56l-180 179l-178 -179zM90 430q0 164 117 279.5t280 115.5q164 0 280 -115.5t116 -279.5q0 -166 -116 -281.5t-280 -115.5t-280.5 115.5t-116.5 281.5zM168 430q0 -133 93 -226 t226 -93q131 0 224.5 93t93.5 226q0 131 -93.5 224.5t-224.5 93.5q-133 0 -226 -93.5t-93 -224.5z" />
<glyph unicode="&#xd5;" horiz-adv-x="960" d="M252 1004l178 176l-178 176l55 55l178 -176l180 176l56 -55l-181 -176l181 -176l-56 -56l-180 179l-178 -179zM90 430q0 164 117 279.5t280 115.5q164 0 280 -115.5t116 -279.5q0 -166 -116 -281.5t-280 -115.5t-280.5 115.5t-116.5 281.5zM168 430q0 -133 93 -226 t226 -93q131 0 224.5 93t93.5 226q0 131 -93.5 224.5t-224.5 93.5q-133 0 -226 -93.5t-93 -224.5z" />
<glyph unicode="&#xd9;" horiz-adv-x="974" d="M426 1108h78q0 -80 49 -157h-86q-41 55 -41 157zM168 354v473h78v-473q0 -178 188 -235q45 -12 76 -13q31 0 76 13q188 57 188 235v473h78v-473q0 -231 -240 -307q-57 -18 -102 -18t-102 18q-240 74 -240 307z" />
<glyph unicode="&#xdb;" horiz-adv-x="974" d="M277 1006l178 176l-178 176l55 55l178 -176l180 176l56 -55l-181 -176l181 -176l-56 -56l-180 179l-178 -179zM168 354v473h78v-473q0 -178 188 -235q45 -12 76 -13q31 0 76 13q188 57 188 235v473h78v-473q0 -231 -240 -307q-57 -18 -102 -18t-102 18q-240 74 -240 307z " />
<glyph unicode="&#xe0;" horiz-adv-x="1048" d="M828 1112h78q0 -80 49 -157h-86q-41 55 -41 157zM88 324q0 238 217 381q188 123 440 124l166 2v-727q-61 -27 -207.5 -55.5t-216.5 -28.5q-399 1 -399 304zM166 324q0 -117 113 -177q88 -47 217 -47q223 0 338 62q0 -3 -1 -3q-2 0 -2 228q0 61 3.5 181t3.5 177 q-18 6 -54 7q-236 0 -407 -95q-211 -116 -211 -333z" />
<glyph unicode="&#xe2;" horiz-adv-x="1048" d="M678 1010l178 176l-178 176l55 55l178 -176l180 176l56 -55l-181 -176l181 -176l-56 -56l-180 179l-178 -179zM88 324q0 238 217 381q188 123 440 124l166 2v-727q-61 -27 -207.5 -55.5t-216.5 -28.5q-399 1 -399 304zM166 324q0 -117 113 -177q88 -47 217 -47 q223 0 338 62q0 -3 -1 -3q-2 0 -2 228q0 61 3.5 181t3.5 177q-18 6 -54 7q-236 0 -407 -95q-211 -116 -211 -333z" />
<glyph unicode="&#xe3;" horiz-adv-x="1048" d="M678 1010l178 176l-178 176l55 55l178 -176l180 176l56 -55l-181 -176l181 -176l-56 -56l-180 179l-178 -179zM88 324q0 238 217 381q188 123 440 124l166 2v-727q-61 -27 -207.5 -55.5t-216.5 -28.5q-399 1 -399 304zM166 324q0 -117 113 -177q88 -47 217 -47 q223 0 338 62q0 -3 -1 -3q-2 0 -2 228q0 61 3.5 181t3.5 177q-18 6 -54 7q-236 0 -407 -95q-211 -116 -211 -333z" />
<glyph unicode="&#xe8;" horiz-adv-x="991" d="M537 1130h78q0 -80 49 -157h-86q-41 55 -41 157zM63 344q0 217 173 365q164 141 385 141q303 0 303 -301q0 -43 -17 -160h-762l-4 -45v-15q0 -82 41 -139q45 -61 92 -124l-65 -39q-51 72 -103 145q-43 66 -43 172zM162 467h678q6 45 6 82q0 223 -201 223q-166 0 -293 -74 q-141 -81 -190 -231z" />
<glyph unicode="&#xea;" horiz-adv-x="991" d="M387 1028l178 176l-178 176l55 55l178 -176l180 176l56 -55l-181 -176l181 -176l-56 -56l-180 179l-178 -179zM63 344q0 217 173 365q164 141 385 141q303 0 303 -301q0 -43 -17 -160h-762l-4 -45v-15q0 -82 41 -139q45 -61 92 -124l-65 -39q-51 72 -103 145 q-43 66 -43 172zM162 467h678q6 45 6 82q0 223 -201 223q-166 0 -293 -74q-141 -81 -190 -231z" />
<glyph unicode="&#xec;" horiz-adv-x="387" d="M113 1106h78q0 -80 49 -157h-86q-41 55 -41 157zM158 178v647h78v-647q0 -82 49 -160h-86q-41 56 -41 160z" />
<glyph unicode="&#xee;" horiz-adv-x="387" d="M-39 1004l178 176l-178 176l55 55l178 -176l180 176l56 -55l-181 -176l181 -176l-56 -56l-180 179l-178 -179zM158 178v647h78v-647q0 -82 49 -160h-86q-41 56 -41 160z" />
<glyph unicode="&#xf1;" horiz-adv-x="974" d="M277 1004l178 176l-178 176l55 55l178 -176l180 176l56 -55l-181 -176l181 -176l-56 -56l-180 179l-178 -179zM168 45v440q0 233 240 308q53 16 102 16t102 -16q240 -76 240 -308v-440h-78v440q0 178 -188 236q-39 12 -74 12q-37 0 -78 -12q-188 -57 -188 -236v-440h-78z " />
<glyph unicode="&#xf2;" horiz-adv-x="960" d="M404 1106h78q0 -80 49 -157h-86q-41 55 -41 157zM90 430q0 164 117 279.5t280 115.5q164 0 280 -115.5t116 -279.5q0 -166 -116 -281.5t-280 -115.5t-280.5 115.5t-116.5 281.5zM168 430q0 -133 93 -226t226 -93q131 0 224.5 93t93.5 226q0 131 -93.5 224.5t-224.5 93.5 q-133 0 -226 -93.5t-93 -224.5z" />
<glyph unicode="&#xf4;" horiz-adv-x="960" d="M252 1004l178 176l-178 176l55 55l178 -176l180 176l56 -55l-181 -176l181 -176l-56 -56l-180 179l-178 -179zM90 430q0 164 117 279.5t280 115.5q164 0 280 -115.5t116 -279.5q0 -166 -116 -281.5t-280 -115.5t-280.5 115.5t-116.5 281.5zM168 430q0 -133 93 -226 t226 -93q131 0 224.5 93t93.5 226q0 131 -93.5 224.5t-224.5 93.5q-133 0 -226 -93.5t-93 -224.5z" />
<glyph unicode="&#xf5;" horiz-adv-x="960" d="M252 1004l178 176l-178 176l55 55l178 -176l180 176l56 -55l-181 -176l181 -176l-56 -56l-180 179l-178 -179zM90 430q0 164 117 279.5t280 115.5q164 0 280 -115.5t116 -279.5q0 -166 -116 -281.5t-280 -115.5t-280.5 115.5t-116.5 281.5zM168 430q0 -133 93 -226 t226 -93q131 0 224.5 93t93.5 226q0 131 -93.5 224.5t-224.5 93.5q-133 0 -226 -93.5t-93 -224.5z" />
<glyph unicode="&#xf9;" horiz-adv-x="974" d="M426 1108h78q0 -80 49 -157h-86q-41 55 -41 157zM168 354v473h78v-473q0 -178 188 -235q45 -12 76 -13q31 0 76 13q188 57 188 235v473h78v-473q0 -231 -240 -307q-57 -18 -102 -18t-102 18q-240 74 -240 307z" />
<glyph unicode="&#xfb;" horiz-adv-x="974" d="M277 1006l178 176l-178 176l55 55l178 -176l180 176l56 -55l-181 -176l181 -176l-56 -56l-180 179l-178 -179zM168 354v473h78v-473q0 -178 188 -235q45 -12 76 -13q31 0 76 13q188 57 188 235v473h78v-473q0 -231 -240 -307q-57 -18 -102 -18t-102 18q-240 74 -240 307z " />
<glyph unicode="&#x152;" horiz-adv-x="1951" d="M1024 344q0 217 173 365q164 141 385 141q303 0 303 -301q0 -43 -17 -160h-762l-4 -45v-15q0 -82 41 -139q45 -61 92 -124l-65 -39q-51 72 -103 145q-43 66 -43 172zM1123 467h678q6 45 6 82q0 223 -201 223q-166 0 -293 -74q-141 -81 -190 -231zM90 430q0 164 117 279.5 t280 115.5q164 0 280 -115.5t116 -279.5q0 -166 -116 -281.5t-280 -115.5t-280.5 115.5t-116.5 281.5zM168 430q0 -133 93 -226t226 -93q131 0 224.5 93t93.5 226q0 131 -93.5 224.5t-224.5 93.5q-133 0 -226 -93.5t-93 -224.5z" />
<glyph unicode="&#x153;" horiz-adv-x="1951" d="M1024 344q0 217 173 365q164 141 385 141q303 0 303 -301q0 -43 -17 -160h-762l-4 -45v-15q0 -82 41 -139q45 -61 92 -124l-65 -39q-51 72 -103 145q-43 66 -43 172zM1123 467h678q6 45 6 82q0 223 -201 223q-166 0 -293 -74q-141 -81 -190 -231zM90 430q0 164 117 279.5 t280 115.5q164 0 280 -115.5t116 -279.5q0 -166 -116 -281.5t-280 -115.5t-280.5 115.5t-116.5 281.5zM168 430q0 -133 93 -226t226 -93q131 0 224.5 93t93.5 226q0 131 -93.5 224.5t-224.5 93.5q-133 0 -226 -93.5t-93 -224.5z" />
<glyph unicode="&#x2c6;" d="M113 625l178 176l-178 176l55 55l178 -176l180 176l56 -55l-181 -176l181 -176l-56 -56l-180 179l-178 -179z" />
<glyph unicode="&#x2dc;" horiz-adv-x="1210" d="M-235 179l178 176l-178 176l55 55l178 -176l180 176l56 -55l-181 -176l181 -176l-56 -56l-180 179l-178 -179z" />
<glyph unicode="&#x2000;" horiz-adv-x="819" />
<glyph unicode="&#x2001;" horiz-adv-x="1638" />
<glyph unicode="&#x2002;" horiz-adv-x="819" />
<glyph unicode="&#x2003;" horiz-adv-x="1638" />
<glyph unicode="&#x2004;" horiz-adv-x="544" />
<glyph unicode="&#x2005;" horiz-adv-x="409" />
<glyph unicode="&#x2006;" horiz-adv-x="272" />
<glyph unicode="&#x2007;" horiz-adv-x="272" />
<glyph unicode="&#x2008;" horiz-adv-x="204" />
<glyph unicode="&#x2009;" horiz-adv-x="327" />
<glyph unicode="&#x200a;" horiz-adv-x="90" />
<glyph unicode="&#x2010;" horiz-adv-x="991" d="M145 389v78h695v-78h-695z" />
<glyph unicode="&#x2011;" horiz-adv-x="991" d="M145 389v78h695v-78h-695z" />
<glyph unicode="&#x2012;" horiz-adv-x="991" d="M145 389v78h695v-78h-695z" />
<glyph unicode="&#x2013;" horiz-adv-x="1024" d="M205 512v205h614v-205h-614z" />
<glyph unicode="&#x2014;" horiz-adv-x="2048" d="M205 512v205h1638v-205h-1638z" />
<glyph unicode="&#x2018;" horiz-adv-x="423" d="M158 1307q0 102 41 157h86q-49 -76 -49 -157h-78z" />
<glyph unicode="&#x2019;" horiz-adv-x="423" d="M158 1307q49 78 49 157h78q0 -102 -39 -157h-88z" />
<glyph unicode="&#x201c;" horiz-adv-x="708" d="M158 1307q0 102 41 157h86q-49 -76 -49 -157h-78zM430 1307q0 102 39 157h86q-47 -76 -47 -157h-78z" />
<glyph unicode="&#x201d;" horiz-adv-x="708" d="M158 1307q49 78 49 157h78q0 -102 -39 -157h-88zM430 1307q49 78 49 157h78q0 -102 -39 -157h-88z" />
<glyph unicode="&#x2022;" horiz-adv-x="430" d="M154 846q0 31 21.5 52.5t51.5 21.5q33 0 54.5 -21.5t21.5 -52.5q0 -33 -21.5 -54.5t-54.5 -21.5q-31 0 -52 21.5t-21 54.5z" />
<glyph unicode="&#x2026;" horiz-adv-x="1175" d="M154 162q0 31 21.5 52.5t51.5 21.5q33 0 54.5 -21.5t21.5 -52.5q0 -33 -21.5 -54.5t-54.5 -21.5q-31 0 -52 21.5t-21 54.5zM508 162q0 31 21.5 52.5t51.5 21.5q33 0 54.5 -21.5t21.5 -52.5q0 -33 -21.5 -54.5t-54.5 -21.5q-31 0 -52 21.5t-21 54.5zM861 164 q0 31 21.5 52.5t51.5 21.5q33 0 54.5 -21.5t21.5 -52.5q0 -33 -21.5 -54.5t-54.5 -21.5q-31 0 -52 21.5t-21 54.5z" />
<glyph unicode="&#x202f;" horiz-adv-x="327" />
<glyph unicode="&#x2039;" horiz-adv-x="583" d="M154 840q0 197 53 391q63 229 176 344l57 -53q-104 -109 -161 -322q-47 -178 -48 -360q0 -184 45 -363q57 -221 162 -317l-53 -58q-117 102 -180 344q-51 193 -51 394z" />
<glyph unicode="&#x203a;" horiz-adv-x="583" d="M154 1522l57 53q113 -115 176 -344q53 -195 53 -391q0 -201 -51 -394q-63 -242 -180 -344l-53 58q104 96 161 317q45 178 45 363q0 182 -47 360q-57 213 -161 322z" />
<glyph unicode="&#x205f;" horiz-adv-x="409" />
<glyph unicode="&#x2122;" horiz-adv-x="2107" d="M705 45v440q0 141 99.5 234.5t242.5 93.5q80 0 172 -48t131 -114q39 66 131 114t172 48q143 0 242.5 -93t99.5 -235v-440h-78v440q0 100 -45 151.5t-143 84.5q-43 12 -80 12q-31 0 -74 -12q-98 -33 -139 -82q-47 -53 -47 -154v-440h-78v465q0 96 -86 162q-78 61 -178 61 q-35 0 -76 -12q-100 -33 -141 -82q-47 -53 -47 -154v-440h-78zM100 739v78h154v731h78v-1503h-78v694h-154z" />
<glyph unicode="&#xe000;" horiz-adv-x="840" d="M0 840h840v-840h-840v840z" />
<glyph unicode="&#xfb01;" horiz-adv-x="1292" d="M1063 178v647h78v-647q0 -82 49 -160h-86q-41 56 -41 160zM100 739v78h154v377q0 133 61 203q51 63 181 104q174 57 313 58v-76q-94 0 -285.5 -54.5t-191.5 -234.5v-1149h-78v694h-154z" />
<glyph unicode="&#xfb02;" horiz-adv-x="1290" d="M1063 213v1335h78v-1335q0 -82 49 -158h-86q-41 56 -41 158zM100 739v78h154v377q0 133 61 203q51 63 181 104q174 57 313 58v-76q-94 0 -285.5 -54.5t-191.5 -234.5v-1149h-78v694h-154z" />
<glyph unicode="&#xfb03;" horiz-adv-x="2197" d="M1968 178v647h78v-647q0 -82 49 -160h-86q-41 56 -41 160zM1005 739v78h154v377q0 133 61 203q51 63 181 104q174 57 313 58v-76q-94 0 -285.5 -54.5t-191.5 -234.5v-1149h-78v694h-154zM100 739v78h154v377q0 133 61 203q51 63 181 104q174 57 313 58v-76 q-94 0 -285.5 -54.5t-191.5 -234.5v-1149h-78v694h-154z" />
<glyph unicode="&#xfb04;" horiz-adv-x="2195" d="M1968 213v1335h78v-1335q0 -82 49 -158h-86q-41 56 -41 158zM1005 739v78h154v377q0 133 61 203q51 63 181 104q174 57 313 58v-76q-94 0 -285.5 -54.5t-191.5 -234.5v-1149h-78v694h-154zM100 739v78h154v377q0 133 61 203q51 63 181 104q174 57 313 58v-76 q-94 0 -285.5 -54.5t-191.5 -234.5v-1149h-78v694h-154z" />
</font>
</defs>
</svg>
